<?xml version="1.0" encoding="utf-8"?>
<svg xmlns="http://www.w3.org/2000/svg" viewBox="-814.6621 557.7601 1753.0549 304.0417" width="1753.05px" height="304.042px">
    <path fill="#FFFFFF" fill-rule="evenodd" d="M 580.668 617.042 C 681.818 611.86 718.718 618.606 711.648 733.026 C 707.798 795.153 699.308 811.281 633.288 815.373 C 529.048 817.846 497.078 815.663 502.748 699.967 C 505.798 637.667 516.878 620.619 580.668 617.042 Z M 573.458 655.816 C 592.958 654.737 643.698 653.089 658.068 661.082 C 672.978 669.371 671.638 751.49 662.488 767.058 C 658.928 773.109 648.568 774.305 642.468 775.273 C 632.808 775.738 617.918 776.162 609.318 776.324 C 551.268 777.888 542.968 773.71 545.378 714.136 C 546.498 686.326 539.858 661.624 573.458 655.816 Z" style="stroke-width: 1;"/>
    <path fill="#FFFFFF" d="M -363.25 617.669 C -354.79 617.473 -332.87 616.036 -326.24 622.178 C -310.05 638.434 -295.67 659.283 -282.13 678.047 C -261.88 706.097 -238.64 734.603 -219.54 763.244 C -219.99 748.12 -220.94 628.706 -218.71 623.054 C -217.91 621.017 -216.49 619.442 -214.41 618.709 C -207.61 616.311 -188.89 616.234 -182.79 619.799 C -181.11 620.782 -180.79 621.065 -180.35 622.918 C -177.13 636.388 -179.17 682.135 -179.18 698.104 L -179.23 759.741 C -179.24 771.613 -179.07 783.367 -179.55 795.238 C -180.12 809.413 -187.65 812.943 -200.26 815.599 C -236.81 816.092 -239.6 802.034 -259.79 775.171 L -311.28 706.218 C -318.24 696.75 -332.16 676.45 -339.48 668.239 L -340.09 667.569 C -338.48 713.977 -340.08 762.239 -340.45 808.624 C -340.52 817.72 -380.04 816.208 -380.33 809.149 C -382.65 751.811 -381.25 693.815 -381.03 636.382 C -380.99 625.825 -372.42 620.013 -363.25 617.669 Z" style="stroke-width: 1;"/>
    <path fill="#FFFFFF" d="M 749.128 617.902 L 835.398 617.872 C 891.748 617.747 935.698 613.173 933.088 689.099 C 932.068 718.641 924.118 732.072 895.928 743.731 C 901.978 752.815 942.278 806.242 938.088 812.951 C 932.698 815.794 898.088 816.245 893.238 809.865 C 878.368 790.332 865.318 768.48 852.068 747.703 C 841.968 747.964 831.178 747.812 821.028 747.853 L 782.628 747.823 C 782.328 767.526 783.038 787.367 782.428 807.029 C 781.408 816.428 767.738 814.841 761.298 814.339 C 754.128 813.779 747.748 816.172 742.768 810.701 C 739.608 802.992 739.508 724.678 743.088 717.167 C 744.558 714.08 748.258 712.386 751.478 711.723 C 758.558 710.263 767.688 711.326 774.968 711.333 C 794.338 711.352 866.128 714.072 878.968 709.609 C 883.358 708.08 886.968 705.219 888.938 700.929 C 892.578 692.998 892.058 675.046 888.788 667.133 C 887.228 663.359 884.858 660.347 880.988 658.755 C 871.188 654.724 857.178 656.334 846.688 656.351 C 833.038 656.373 753.988 658.859 745.698 655.043 C 743.838 654.185 742.468 652.783 741.818 650.816 C 740.258 646.119 739.868 626.872 742.158 622.707 C 743.788 619.731 746.098 618.881 749.128 617.902 Z" style="stroke-width: 1;"/>
    <path fill="#FFFFFF" d="M 102.938 617.768 C 109.518 617.603 129.798 615.481 134.238 619.987 C 141.108 626.957 137.788 684.35 137.708 696.579 L 176.108 696.525 C 186.698 682.32 226.568 625.92 237.248 619.947 C 242.408 617.067 270.048 616.244 275.628 618.393 C 278.128 619.355 278.458 620.406 279.418 622.68 C 275.988 631.867 220.798 702.232 212.048 713.636 C 225.928 729.481 248.638 761.247 262.098 778.936 C 267.828 786.584 285.388 804.05 278.828 812.591 C 271.538 816.433 248.908 814.419 239.598 814.036 C 233.138 808.4 223.748 794.76 218.268 787.677 C 204.618 770.048 191.548 750.971 177.538 733.689 L 137.708 733.623 C 137.818 756.249 138.008 778.867 137.778 801.478 C 138.628 817.054 128.178 814.282 117.328 814.51 C 96.718 814.942 95.688 814.186 95.808 794.555 C 96.148 738.012 94.968 681.462 96.258 624.984 C 96.328 621.764 100.558 619.288 102.938 617.768 Z" style="stroke-width: 1;"/>
    <path fill="#FFFFFF" fill-rule="evenodd" d="M -53.919 616.781 C -9.72 610.827 -6.182 634.997 10.043 668.832 L 40.068 731.652 L 62.738 779.004 C 67.088 788.099 73.788 801.099 76.658 810.357 C 72.668 816.369 43.188 815.385 38.051 813.381 C 30.339 810.375 11.862 766.177 8.367 758.776 L -36.414 664.424 C -38.069 660.859 -38.977 657.261 -42.978 656.392 C -47.307 659.766 -58.438 685.475 -61.511 692.05 L -95.035 763.155 C -101.67 777.383 -108.08 791.471 -115.16 805.657 C -120.16 817.565 -132.17 814.3 -142.59 814.321 C -148.87 814.333 -158.08 816.768 -161.18 809.873 C -159.14 796.047 -124.77 733.635 -117.14 715.592 C -105.61 688.301 -87.374 654.695 -73.438 627.873 C -70.212 621.663 -60.748 618.265 -53.919 616.781 Z M -43.532 716.982 C -40.901 717.503 -38.874 719.046 -38.047 721.521 C -35.269 729.838 -13.979 768.62 -15.791 775.115 C -20.508 778.95 -33.305 777.616 -39.972 777.465 C -45.182 777.487 -66.375 778.883 -68.824 775.207 C -68.529 768.364 -47.925 724.434 -43.532 716.982 Z" style="stroke-width: 1;"/>
    <path fill="#FFFFFF" d="M -717.25 690.696 C -711.62 690.125 -705.25 690.114 -700.76 693.921 C -690.42 702.676 -681.43 714.327 -672.58 724.584 L -623.74 780.792 C -614.42 791.49 -605.33 802.058 -595.57 812.408 C -586.6 821.916 -575.49 820.781 -563.26 820.62 C -521.53 820.068 -554.26 759.793 -535.24 739.211 C -527.27 730.585 -512.96 731.249 -505.07 739.767 C -496.58 749.781 -499.27 776.747 -499.45 789.714 C -499.33 800.164 -498.92 807.86 -501.67 818.071 C -505.62 833.046 -515.45 845.793 -528.93 853.419 C -548.29 864.294 -580.5 862.868 -602.05 858.732 C -613.7 856.498 -625.34 842.379 -632.95 833.475 C -665.29 795.454 -700.14 758.764 -730.9 719.522 C -738.38 709.982 -727.27 695.174 -717.25 690.696 Z" style="stroke-width: 1;"/>
    <path fill="#FFFFFF" d="M -758.82 557.945 C -750.2 557.841 -741.58 557.799 -732.96 557.817 C -714.85 558.005 -702.14 561.138 -689.97 575.063 C -654.55 615.579 -617.97 655.521 -584.14 697.335 C -582.3 699.614 -581.61 703.867 -581.69 706.722 C -581.91 712.976 -584.65 718.876 -589.27 723.09 C -596.62 729.801 -608.81 728.588 -615.64 721.956 C -632.96 705.13 -648.78 685.569 -664.69 667.246 L -700.85 625.272 C -707.43 617.686 -715.25 608.106 -722.74 601.621 C -728.66 596.492 -750.43 597.61 -757.17 598.383 C -786.96 605.423 -761.49 659.296 -776.34 678.088 C -783.91 687.671 -798.12 687.452 -806.57 680.344 C -817.06 671.521 -813.5 654.259 -813.75 641.894 C -814.2 619.506 -816.39 596.02 -800.11 578.022 C -788.36 564.849 -776.13 559.384 -758.82 557.945 Z" style="stroke-width: 1;"/>
    <path fill="#FFFFFF" d="M 303.518 617.971 C 322.678 618.045 476.708 616.103 481.688 620.028 C 483.918 621.786 484.528 626.075 484.748 628.748 C 485.278 635.272 485.998 649.337 481.658 654.333 C 474.398 658.165 422.718 656.564 410.768 656.532 L 410.798 746.981 C 410.798 760.55 412.848 797.72 408.398 811.704 C 407.318 815.111 389.638 814.635 385.598 814.435 C 379.338 814.126 369.168 815.502 369.328 805.545 C 369.038 789.901 369.248 773.687 369.258 758.012 L 369.288 656.451 C 357.538 656.453 306.328 657.994 298.958 654.889 C 297.408 653.549 294.698 650.715 294.998 648.537 C 296.478 637.671 288.558 620.374 303.518 617.971 Z" style="stroke-width: 1;"/>
    <path fill="#FFFFFF" d="M -798.53 711.572 C -748.48 707.935 -785.61 790.225 -767.58 814.682 C -760.98 823.645 -718.37 826.016 -725.83 803.668 C -727.63 798.282 -717.02 786.131 -709.43 788.288 C -681.68 796.176 -682.38 820.725 -685.09 844.334 C -694.85 867.867 -722.92 859.854 -743.21 861.441 C -752.41 862.161 -766.36 860.73 -774.9 857.813 C -789.26 852.967 -801.07 842.546 -807.66 828.899 C -817.99 807.462 -814.54 748.931 -812 723.826 C -811.48 718.61 -803 713.661 -798.53 711.572 Z" style="stroke-width: 1;"/>
    <path fill="#FFFFFF" d="M -611.33 558.758 C -606.33 558.138 -601.12 557.904 -596.08 558.035 C -565.81 558.823 -535.85 551.922 -513.44 577.943 C -507.14 585.372 -502.75 594.223 -500.65 603.731 C -496.37 622.645 -500.97 664.707 -499.33 685.863 C -497.84 705.021 -522.98 715.981 -538.29 697.243 C -547.36 680.11 -535.85 628.777 -543.85 608.248 C -548.78 595.592 -575.82 596.044 -582.49 599.183 C -591.6 603.469 -583.37 637.508 -607.67 628.982 C -615.64 626.271 -622.16 620.425 -625.72 612.796 C -630.24 603.101 -630.35 583.971 -626.43 573.919 C -623.01 565.152 -619.42 562.385 -611.33 558.758 Z" style="stroke-width: 1;"/>
</svg>
